<svg xmlns="http://www.w3.org/2000/svg" viewBox="0 0 24 24" width="24" height="24"  fill="none"><path fill="currentcolor" d="M12 0C5.344 0 0 5.39 0 12c0 6.656 5.344 12 12 12 6.61 0 12-5.344 12-12 0-6.61-5.39-12-12-12Zm0 22.5c-2.25 0-4.313-.656-6-1.828.188-2.344 2.11-4.172 4.5-4.172h3c2.344 0 4.266 1.828 4.453 4.172C16.266 21.844 14.203 22.5 12 22.5Zm7.266-2.953c-.657-2.578-3-4.547-5.766-4.547h-3c-2.813 0-5.156 1.969-5.813 4.547A10.514 10.514 0 0 1 1.5 12C1.5 6.234 6.188 1.5 12 1.5c5.766 0 10.5 4.734 10.5 10.5 0 2.953-1.266 5.625-3.234 7.547ZM12 6a3.731 3.731 0 0 0-3.75 3.75c0 2.11 1.64 3.75 3.75 3.75 2.063 0 3.75-1.64 3.75-3.75A3.761 3.761 0 0 0 12 6Zm0 6a2.221 2.221 0 0 1-2.25-2.25A2.25 2.25 0 0 1 12 7.5c1.219 0 2.25 1.031 2.25 2.25A2.25 2.25 0 0 1 12 12Z"/></svg>