<svg width="27" height="24" viewBox="0 0 27 24" fill="none" xmlns="http://www.w3.org/2000/svg">
<path d="M3 22.5H13.875C14.2969 23.0625 14.8594 23.5781 15.4219 24C15.2812 24 15.1406 24 15 24H3C1.3125 24 0 22.6875 0 21V3C0 1.35938 1.3125 0 3 0H10.3125C10.875 0 11.4844 0.28125 11.9062 0.703125L17.2969 6.09375C17.7188 6.51562 18 7.125 18 7.6875V9.32812C17.4375 9.46875 16.9688 9.65625 16.5 9.9375V9H11.25C9.98438 9 9 8.01562 9 6.75V1.5H3C2.15625 1.5 1.5 2.20312 1.5 3V21C1.5 21.8438 2.15625 22.5 3 22.5ZM16.2656 7.17188L10.8281 1.73438C10.7344 1.64062 10.5938 1.59375 10.5 1.54688V6.75C10.5 7.17188 10.8281 7.5 11.25 7.5H16.4531C16.4062 7.40625 16.3594 7.26562 16.2656 7.17188ZM21.2812 17.25L23.0156 18.9844C23.2969 19.2656 23.2969 19.7812 23.0156 20.0625C22.7344 20.3438 22.2188 20.3438 21.9375 20.0625L20.25 18.3281L18.5156 20.0625C18.2344 20.3438 17.7188 20.3438 17.4375 20.0625C17.1562 19.7812 17.1562 19.2656 17.4375 18.9844L19.1719 17.25L17.4375 15.5625C17.1562 15.2812 17.1562 14.7656 17.4375 14.4844C17.7188 14.2031 18.2344 14.2031 18.5156 14.4844L20.25 16.2188L21.9375 14.4844C22.2188 14.2031 22.7344 14.2031 23.0156 14.4844C23.2969 14.7656 23.2969 15.2812 23.0156 15.5625L21.2812 17.25ZM27 17.25C27 21 23.9531 24 20.25 24C16.5 24 13.5 21 13.5 17.25C13.5 13.5469 16.5 10.5 20.25 10.5C23.9531 10.5 27 13.5469 27 17.25ZM20.25 12C17.3438 12 15 14.3906 15 17.25C15 20.1562 17.3438 22.5 20.25 22.5C23.1094 22.5 25.5 20.1562 25.5 17.25C25.5 14.3906 23.1094 12 20.25 12Z" fill="#BF524D"/>
</svg>
