<svg width="25" height="25" viewBox="0 0 25 25" fill="none" xmlns="http://www.w3.org/2000/svg">
<path d="M21.9531 0H3.95312C2.26562 0 0.953125 1.35938 0.953125 3V16.4531C0.953125 18.0938 2.26562 19.4062 3.95312 19.4062H8.45312V23.3438C8.45312 23.8125 8.96875 24.0469 9.34375 23.7656L15.2031 19.4062H21.9531C23.5938 19.4062 24.9531 18.0469 24.9531 16.4531V3C24.9531 1.35938 23.6406 0 21.9531 0ZM23.5 16.5C23.5 17.3438 22.7969 18 22 18H15.2031C14.875 18 14.5938 18.1406 14.3125 18.3281L10 21.5625V18.75C10 18.375 9.625 18 9.25 18H4C3.15625 18 2.5 17.3438 2.5 16.5V3C2.5 2.20312 3.15625 1.5 4 1.5H22C22.7969 1.5 23.5 2.20312 23.5 3V16.5Z" fill="#4D6BA5"/>
</svg>
