<svg width="18" height="24" viewBox="0 0 18 24" fill="none" xmlns="http://www.w3.org/2000/svg">
<path d="M3 5.625C3 5.01562 3.46875 4.5 4.125 4.5H6.375C6.98438 4.5 7.5 5.01562 7.5 5.625V7.875C7.5 8.53125 6.98438 9 6.375 9H4.125C3.46875 9 3 8.53125 3 7.875V5.625ZM4.5 6V7.5H6V6H4.5ZM13.875 4.5C14.4844 4.5 15 5.01562 15 5.625V7.875C15 8.53125 14.4844 9 13.875 9H11.625C10.9688 9 10.5 8.53125 10.5 7.875V5.625C10.5 5.01562 10.9688 4.5 11.625 4.5H13.875ZM13.5 7.5V6H12V7.5H13.5ZM3 11.625C3 11.0156 3.46875 10.5 4.125 10.5H6.375C6.98438 10.5 7.5 11.0156 7.5 11.625V13.875C7.5 14.5312 6.98438 15 6.375 15H4.125C3.46875 15 3 14.5312 3 13.875V11.625ZM4.5 12V13.5H6V12H4.5ZM13.875 10.5C14.4844 10.5 15 11.0156 15 11.625V13.875C15 14.5312 14.4844 15 13.875 15H11.625C10.9688 15 10.5 14.5312 10.5 13.875V11.625C10.5 11.0156 10.9688 10.5 11.625 10.5H13.875ZM13.5 13.5V12H12V13.5H13.5ZM3 24C1.3125 24 0 22.6875 0 21V3C0 1.35938 1.3125 0 3 0H15C16.6406 0 18 1.35938 18 3V21C18 22.6875 16.6406 24 15 24H3ZM1.5 3V21C1.5 21.8438 2.15625 22.5 3 22.5H6V19.5C6 17.8594 7.3125 16.5 9 16.5C10.6406 16.5 12 17.8594 12 19.5V22.5H15C15.7969 22.5 16.5 21.8438 16.5 21V3C16.5 2.20312 15.7969 1.5 15 1.5H3C2.15625 1.5 1.5 2.20312 1.5 3ZM10.5 19.5C10.5 18.7031 9.79688 18 9 18C8.15625 18 7.5 18.7031 7.5 19.5V22.5H10.5V19.5Z" fill="#4D6BA5"/>
</svg>
