<svg width="26" height="22" viewBox="0 0 26 22" fill="none" xmlns="http://www.w3.org/2000/svg">
<path d="M13 15.875C12.3438 15.875 11.875 16.3906 11.875 17C11.875 17.6562 12.3906 18.125 13 18.125C13.6094 18.125 14.0781 17.6562 14.0781 17C14.125 16.3906 13.6094 15.875 13 15.875ZM13 14C13.375 14 13.7031 13.6719 13.7031 13.25V6.5C13.7031 6.125 13.3281 5.75 13 5.75C12.625 5.75 12.25 6.125 12.25 6.5V13.25C12.25 13.6719 12.5781 14 13 14ZM24.625 17.6562L15.25 1.8125C14.7812 1.01562 13.9375 0.546875 13 0.5C12.0156 0.5 11.1719 1.01562 10.7031 1.8125L1.32812 17.6562C0.859375 18.4531 0.859375 19.3906 1.32812 20.1875C1.79688 21.0312 2.64062 21.5 3.625 21.5H22.375C23.3125 21.5 24.1562 21.0312 24.625 20.1875C25.0938 19.3906 25.0938 18.4531 24.625 17.6562ZM23.3125 19.4375C23.125 19.8125 22.75 20 22.3281 20H3.625C3.20312 20 2.82812 19.8125 2.64062 19.4375C2.40625 19.1094 2.45312 18.7344 2.64062 18.4062L12.0156 2.5625C12.2031 2.23438 12.5781 2 13 2C12.9531 2 13 2 13 2C13.375 2.04688 13.75 2.23438 13.9375 2.5625L23.3125 18.4062C23.5 18.7344 23.5469 19.1094 23.3125 19.4375Z" fill="#E9A247"/>
</svg>
