<svg xmlns="http://www.w3.org/2000/svg" width="162" height="73" fill="none"><path fill="#365995" d="M6.484 72.453a.77.77 0 0 1-.576-.255.847.847 0 0 1-.243-.605c0-.234.082-.436.246-.6a.781.781 0 0 1 .573-.246c.22 0 .413.083.57.248a.84.84 0 0 1 .236.598c0 .23-.08.433-.234.602a.756.756 0 0 1-.572.258ZM8.708 72.453a.77.77 0 0 1-.576-.255.852.852 0 0 1-.243-.605c0-.234.082-.436.246-.6a.781.781 0 0 1 .573-.246c.222 0 .414.083.57.248a.838.838 0 0 1 .236.598.866.866 0 0 1-.234.602.756.756 0 0 1-.572.258ZM62.924 62.806c-.441 0-.856.113-1.233.336a2.625 2.625 0 0 0-.922.927c-.225.377-.36.803-.401 1.266l2.59 2.54 2.538-2.583a3.23 3.23 0 0 0-.417-1.223 2.621 2.621 0 0 0-.923-.927 2.39 2.39 0 0 0-1.232-.336Zm-20.803 0c-1.11 0-1.92.252-2.41.748-.487.494-.735 1.118-.735 1.853 0 .735.247 1.35.734 1.831.488.482 1.31.727 2.438.727h1.233l-.049-5.21-1.212.051Zm21.805 6.587c-.26 0-.463-.04-.622-.12-.134-.066-.27-.198-.42-.4a.725.725 0 0 1-.35.41c-.153.074-.353.11-.611.11H24.102l-.05-9.86 1.353-.051.05 8.534 12.975-.05c-.24-.29-.43-.62-.567-.983a4.46 4.46 0 0 1-.275-1.561c0-.727.156-1.405.464-2.016.31-.617.813-1.123 1.495-1.504.674-.377 1.55-.568 2.601-.568h2.536l.05 6.682 16.294-.05-2.037-1.985-.016-.442c0-.758.178-1.468.53-2.11a4.071 4.071 0 0 1 1.436-1.53 3.7 3.7 0 0 1 1.983-.565c.722 0 1.394.19 1.997.565a4.105 4.105 0 0 1 1.436 1.523c.352.637.529 1.349.529 2.117v.404l-2.065 2.022h14.025l-.049-8.431 1.352-.052.05 9.91H63.925Z"/><path fill="#365995" d="M40.062 60.441a.77.77 0 0 1-.576-.255.848.848 0 0 1-.243-.604c0-.234.082-.436.246-.6a.782.782 0 0 1 .573-.246c.221 0 .413.083.57.248a.837.837 0 0 1 .236.598c0 .23-.08.432-.234.602a.751.751 0 0 1-.572.257ZM42.288 60.441a.77.77 0 0 1-.575-.255.85.85 0 0 1-.243-.604c0-.234.082-.435.245-.6a.782.782 0 0 1 .573-.246c.222 0 .413.083.57.248a.838.838 0 0 1 .236.598c0 .23-.079.432-.234.602a.751.751 0 0 1-.572.257ZM82.115 69.393l-.05-9.86 1.353-.052.05 9.912h-1.353ZM113.48 72.064a.782.782 0 0 1-.573-.245.843.843 0 0 1-.246-.615c0-.234.083-.435.246-.6a.78.78 0 0 1 .573-.245c.22 0 .413.083.57.248a.836.836 0 0 1 .236.597c0 .23-.079.433-.234.603a.753.753 0 0 1-.572.257Z"/><path fill="#365995" d="M93.015 73c-1.257 0-2.325-.354-3.176-1.052-.864-.708-1.302-1.867-1.302-3.445 0-.82.138-1.764.41-2.805l.023-.09 1.362-.038.005.221c-.273.994-.412 1.877-.412 2.625 0 1.155.29 1.978.862 2.448.583.48 1.333.722 2.228.722 2.079 0 3.09-1.18 3.09-3.609v-8.444l1.352-.052.05 8.535 18.071-.052c-.112-.185-.187-.553-.271-1.051a5.2 5.2 0 0 0-.068-.45c-.137-.809-.319-1.457-.543-1.927a2.688 2.688 0 0 0-.876-1.073 3.373 3.373 0 0 0-1.095-.494 5.08 5.08 0 0 0-1.274-.163 4.45 4.45 0 0 0-1.317.184l-.124.037-.3-1.38.142-.088a6.349 6.349 0 0 1 1.668-.21c.559 0 1.116.076 1.656.224a4.76 4.76 0 0 1 1.482.696c.513.366.934.88 1.251 1.525.313.636.551 1.454.712 2.43.099.561.184.967.253 1.207.058.204.139.344.241.418.105.076.277.115.511.115h13.436l-.049-6.125 1.352-.052.049 6.23 1.657-.053c.488 0 .854-.175 1.121-.538.271-.372.41-.942.41-1.698v-3.89l1.352-.05.05 3.94c0 .742.154 1.309.461 1.684.3.367.749.552 1.335.552h1.442l-.05-6.578 1.353-.052.049 6.682 14.341-.052-.05-8.431 1.353-.052.049 9.86-18.487.052c-.593 0-1.11-.13-1.536-.389a2.452 2.452 0 0 1-.891-.942c-.157.394-.463.707-.827.934-.423.263-.919.397-1.475.397H97.354c-.153 1.153-.633 2.066-1.379 2.672-.764.62-1.76.935-2.96.935ZM159.203 69.393l-.049-9.86 1.352-.052.05 9.912h-1.353ZM2.575 69.393C.866 69.393 0 68.458 0 66.614v-3.71l1.354-.052.05 3.681c0 .5.116.876.348 1.117.232.241.608.364 1.12.364h9.082l-.049-.583-.006-3.173c0-1.844.867-2.78 2.575-2.78h3.393l.049 6.853-1.349.052-.049-5.576-1.748.051c-.51 0-.887.123-1.118.363-.232.241-.35.618-.35 1.117v5.055H2.575ZM20.482 72.451h1.386V62.327h-1.386v10.124ZM29.42 40.52v-9.707h9.245v4.219h-5.227v5.488H29.42ZM36.68 41.824h3.244v-3.407H36.68v3.407ZM35.06 48.115h2.314v-2.43h-2.315v2.43ZM23.21 51.16h2.314v-4.252h-2.315v4.252ZM13.948 45.539h-2.314v2.43h2.314v-2.43ZM5.324 36.486H3.01v2.43h2.314v-2.43ZM3.703 24.36H0v2.431h3.703v-2.43ZM5.495 12.206H3.181v2.43h2.314v-2.43ZM14.02 3.255h-2.315v2.43h2.315v-2.43ZM25.67 0h-2.315v4.252h2.315V-.001ZM37.243 3.195H34.93v2.43h2.314v-2.43ZM43.448 14.57h2.315v-2.43h-2.315v2.43ZM44.822 26.814h4.05v-2.43h-4.05v2.43ZM43.45 39.023h2.314v-2.43h-2.315v2.43ZM27.726 47.707h3.245v-4.136h-3.245v4.136ZM41.744 32.61h3.939v-3.408h-3.94v3.407ZM41.744 21.959h3.939v-3.407h-3.94v3.407ZM17.92 47.707h3.245v-4.136H17.92v4.136ZM12.216 38.43H8.97v3.408h3.245V38.43ZM39.923 9.337h-3.245v3.407h3.245V9.337ZM31.293 3.442h-3.245v4.136h3.245V3.442ZM7.293 29.372H3.354v3.407h3.939v-3.407ZM7.293 18.55H3.354v3.407h3.939V18.55ZM21.152 3.442h-3.245v4.136h3.245V3.442ZM12.216 9.343H8.97v3.407h3.245V9.343ZM10.209 20.348v-4.22h5.227v-5.487h4.018v9.707h-9.245ZM22.435 35.651h4.018v6.931h-4.018v-6.93ZM8.248 23.469h6.598v4.218H8.248V23.47ZM34.032 27.693v-4.219h6.6v4.22h-6.6ZM22.43 8.578h4.018v6.93H22.43v-6.93ZM29.42 20.348v-4.22l.003-.309v-5.18h4.018v5.49h5.228v4.219h-9.25ZM15.35 40.617v-5.49H10.12V30.91h9.246v9.708H15.35ZM71.013 27.344h10.113c1.232 0 2.331-.155 3.265-.46.948-.31 1.755-.754 2.4-1.32a5.405 5.405 0 0 0 1.477-2.11c.318-.81.48-1.724.48-2.713 0-1.964-.658-3.509-1.956-4.592-1.268-1.058-3.174-1.594-5.666-1.594H71.013v12.789Zm16.26 14.117-5.853-9.282-10.407-.022v9.304h-5.44V9.699h15.394c2.338 0 4.387.258 6.092.767 1.687.503 3.102 1.237 4.205 2.183a8.719 8.719 0 0 1 2.451 3.438c.54 1.36.814 2.925.814 4.654 0 1.166-.136 2.291-.404 3.34a10.118 10.118 0 0 1-1.227 2.889 9.738 9.738 0 0 1-2.084 2.348c-.838.686-1.839 1.265-2.974 1.72l-.515.206 6.617 10.217h-6.67ZM99.793 41.46V9.7h25.63v4.898h-20.189v7.436h17.88v4.543h-17.88v10.008h20.607v4.876H99.794ZM137.627 27.344h10.113c1.232 0 2.331-.155 3.265-.46.946-.31 1.753-.753 2.399-1.32a5.41 5.41 0 0 0 1.477-2.11c.319-.81.481-1.723.481-2.713 0-1.964-.659-3.509-1.956-4.592-1.269-1.058-3.175-1.594-5.666-1.594h-10.113v12.789Zm16.259 14.117-5.853-9.282-10.406-.022v9.304h-5.44V9.699h15.393c2.338 0 4.387.258 6.093.767 1.686.503 3.101 1.237 4.204 2.183a8.712 8.712 0 0 1 2.452 3.438c.54 1.358.813 2.924.813 4.654a13.53 13.53 0 0 1-.404 3.34 10.087 10.087 0 0 1-1.227 2.889 9.714 9.714 0 0 1-2.084 2.348c-.837.686-1.838 1.265-2.974 1.72l-.514.206 6.616 10.217h-6.669Z"/></svg>